<svg width="274" height="58" viewBox="0 0 274 58" fill="none" xmlns="http://www.w3.org/2000/svg">
<path d="M0 14.6738H16.3716C18.1907 14.6738 19.6459 16.1291 19.6459 17.9481C19.6459 19.7672 18.1907 21.2225 16.3716 21.2225H0C0.606356 29.4689 7.51882 35.8963 15.8865 35.8963H16.4929C18.312 35.8963 19.7672 37.3515 19.7672 39.1706C19.7672 40.9897 18.312 42.4449 16.4929 42.4449H15.8865C7.51882 42.4449 0.606356 48.8723 0 57.1188H43.5364C51.9041 57.1188 58.8166 50.6914 59.4229 42.4449H43.0513C41.2322 42.4449 39.777 40.9897 39.777 39.1706C39.777 37.3515 41.2322 35.8963 43.0513 35.8963H59.4229C58.8166 27.6498 51.9041 21.2225 43.5364 21.2225H42.93C41.111 21.2225 39.6557 19.7672 39.6557 17.9481C39.6557 16.1291 41.111 14.6738 42.93 14.6738H43.5364C51.9041 14.6738 58.8166 8.24645 59.4229 0H15.8865C7.51882 0 0.606356 6.42737 0 14.6738Z" fill="#139B76"/>
<path d="M101.022 47.2654C93.016 47.2654 87.2971 43.4681 87.1141 35.6447H92.6957C92.8787 41.0433 96.8133 42.5531 101.16 42.5531C105.323 42.5531 108.251 40.8603 108.251 37.5663C108.251 35.05 106.833 33.7232 99.6956 32.3049C91.8722 30.7952 88.0291 28.2331 88.0291 22.2398C88.0291 16.8412 92.8787 13.2269 99.9701 13.2269C108.937 13.2269 113.055 17.802 113.238 24.2071H107.748C107.519 19.998 105.14 17.9392 99.9701 17.9392C96.2643 17.9392 93.7937 19.5405 93.7937 22.1025C93.7937 24.7103 94.846 26.0828 101.8 27.4554C111.499 29.2854 114.016 32.3049 114.016 37.3375C114.016 43.6053 108.663 47.2654 101.022 47.2654Z" fill="black"/>
<path d="M117.704 46.7164V13.7759H122.965V25.9913C124.613 23.9325 126.992 22.377 130.331 22.377C135.959 22.377 138.795 26.3116 138.795 31.5729V46.7164H133.58V32.1677C133.58 29.1939 132.161 26.9978 128.776 26.9978C126.809 26.9978 122.965 28.1874 122.965 33.5859V46.7164H117.704Z" fill="black"/>
<path d="M154.819 47.2654C147.27 47.2654 142.878 41.9126 142.878 34.8212C142.878 27.7299 147.27 22.377 154.819 22.377C162.322 22.377 166.714 27.7299 166.714 34.8212C166.714 41.9126 162.322 47.2654 154.819 47.2654ZM148.277 34.8212C148.277 39.5335 150.335 42.7818 154.819 42.7818C159.257 42.7818 161.316 39.5335 161.316 34.8212C161.316 30.1089 159.257 26.8606 154.819 26.8606C150.335 26.8606 148.277 30.1089 148.277 34.8212Z" fill="black"/>
<path d="M170.782 22.926H175.86V26.2658C177.507 23.841 180.024 22.377 183.501 22.377C190.501 22.377 194.298 27.7299 194.298 34.8212C194.298 41.9126 190.501 47.2654 183.501 47.2654C180.161 47.2654 177.69 45.8929 176.043 43.6511V55.8665H170.782V22.926ZM175.952 34.8212C175.952 39.5335 178.011 42.7818 182.403 42.7818C186.841 42.7818 188.899 39.5335 188.899 34.8212C188.899 30.1089 186.841 26.8606 182.403 26.8606C178.011 26.8606 175.952 30.1089 175.952 34.8212Z" fill="black"/>
<path d="M200.773 19.6777C200.773 15.1484 203.061 13.7759 207.087 13.7759H212.165V17.9392H208.368C206.63 17.9392 206.035 18.6712 206.035 20.2267V22.926H212.165V27.0893H206.035V46.7164H200.773V27.0893H196.519V22.926H200.773V19.6777Z" fill="black"/>
<path d="M221.123 37.4747C221.123 40.4485 222.541 42.6446 225.927 42.6446C227.894 42.6446 231.737 41.4551 231.737 36.0565V22.926H236.998V46.7164H231.92V43.3766C230.273 45.6184 227.802 47.2654 224.371 47.2654C218.744 47.2654 215.907 43.3308 215.907 38.0695V22.926H221.123V37.4747Z" fill="black"/>
<path d="M258.009 32.1677C258.009 29.1939 256.591 26.9978 253.205 26.9978C251.238 26.9978 247.395 28.1874 247.395 33.5859V46.7164H242.133V22.926H247.212V26.2658C248.859 24.0241 251.329 22.377 254.761 22.377C260.388 22.377 263.225 26.3116 263.225 31.5729V46.7164H258.009V32.1677Z" fill="black"/>
<path d="M267.765 46.7164V39.991H273.85V46.7164H267.765Z" fill="black"/>
</svg>
